<svg width="25" height="25" viewBox="0 0 25 25" fill="none" xmlns="http://www.w3.org/2000/svg">
<path d="M12.6514 9.5L15.8214 12.66V12.5C15.8214 11.7044 15.5053 10.9413 14.9427 10.3787C14.3801 9.81607 13.617 9.5 12.8214 9.5H12.6514ZM8.35135 10.3L9.90135 11.85C9.85135 12.06 9.82135 12.27 9.82135 12.5C9.82135 13.2956 10.1374 14.0587 10.7 14.6213C11.2626 15.1839 12.0257 15.5 12.8214 15.5C13.0414 15.5 13.2613 15.47 13.4713 15.42L15.0213 16.97C14.3513 17.3 13.6114 17.5 12.8214 17.5C11.4953 17.5 10.2235 16.9732 9.28582 16.0355C8.34813 15.0979 7.82135 13.8261 7.82135 12.5C7.82135 11.71 8.02135 10.97 8.35135 10.3ZM2.82135 4.77L5.10135 7.05L5.55135 7.5C3.90135 8.8 2.60135 10.5 1.82135 12.5C3.55135 16.89 7.82135 20 12.8214 20C14.3714 20 15.8513 19.7 17.2013 19.16L17.6313 19.58L20.5513 22.5L21.8214 21.23L4.09135 3.5M12.8214 7.5C14.1474 7.5 15.4192 8.02678 16.3569 8.96447C17.2946 9.90215 17.8214 11.1739 17.8214 12.5C17.8214 13.14 17.6913 13.76 17.4613 14.32L20.3913 17.25C21.8913 16 23.0914 14.36 23.8214 12.5C22.0914 8.11 17.8214 5 12.8214 5C11.4214 5 10.0814 5.25 8.82135 5.7L10.9914 7.85C11.5613 7.63 12.1714 7.5 12.8214 7.5Z" fill="black" fill-opacity="0.5"/>
</svg>
