<svg width="32" height="33" viewBox="0 0 32 33" fill="none" xmlns="http://www.w3.org/2000/svg">
<g filter="url(#filter0_d_1924_9346)">
<path fill-rule="evenodd" clip-rule="evenodd" d="M22.276 13.4194C22.276 14.6271 22.5952 15.3389 23.2976 16.1592C23.8299 16.7635 24 17.5393 24 18.3808C24 19.2215 23.7238 20.0195 23.1705 20.6674C22.4461 21.4441 21.4245 21.9399 20.3818 22.0261C18.8709 22.1549 17.3591 22.2634 15.8271 22.2634C14.2942 22.2634 12.7833 22.1985 11.2724 22.0261C10.2288 21.9399 9.20723 21.4441 8.48379 20.6674C7.93046 20.0195 7.65332 19.2215 7.65332 18.3808C7.65332 17.5393 7.82438 16.7635 8.35573 16.1592C9.08013 15.3389 9.3783 14.6271 9.3783 13.4194V13.0098C9.3783 11.3925 9.78159 10.3349 10.6121 9.29964C11.8468 7.78981 13.826 6.88431 15.7841 6.88431H15.8701C17.8703 6.88431 19.9136 7.83339 21.1273 9.4081C21.9147 10.4221 22.276 11.4351 22.276 13.0098V13.4194ZM13.0127 24.2511C13.0127 23.7669 13.4571 23.5451 13.868 23.4502C14.3487 23.3485 17.2779 23.3485 17.7586 23.4502C18.1695 23.5451 18.6139 23.7669 18.6139 24.2511C18.59 24.7121 18.3195 25.1208 17.9459 25.3803C17.4613 25.758 16.8927 25.9972 16.2983 26.0834C15.9695 26.126 15.6465 26.127 15.3293 26.0834C14.7339 25.9972 14.1652 25.758 13.6817 25.3794C13.3071 25.1208 13.0366 24.7121 13.0127 24.2511Z" fill="#5C6171"/>
</g>
<defs>
<filter id="filter0_d_1924_9346" x="-5.34668" y="-4.11569" width="42.3467" height="45.2314" filterUnits="userSpaceOnUse" color-interpolation-filters="sRGB">
<feFlood flood-opacity="0" result="BackgroundImageFix"/>
<feColorMatrix in="SourceAlpha" type="matrix" values="0 0 0 0 0 0 0 0 0 0 0 0 0 0 0 0 0 0 127 0" result="hardAlpha"/>
<feMorphology radius="9" operator="dilate" in="SourceAlpha" result="effect1_dropShadow_1924_9346"/>
<feOffset dy="2"/>
<feGaussianBlur stdDeviation="2"/>
<feColorMatrix type="matrix" values="0 0 0 0 0.0546562 0 0 0 0 0.0276042 0 0 0 0 0.220833 0 0 0 0.25 0"/>
<feBlend mode="normal" in2="BackgroundImageFix" result="effect1_dropShadow_1924_9346"/>
<feBlend mode="normal" in="SourceGraphic" in2="effect1_dropShadow_1924_9346" result="shape"/>
</filter>
</defs>
</svg>
