<svg width="25" height="24" viewBox="0 0 25 24" fill="none" xmlns="http://www.w3.org/2000/svg">
<g clip-path="url(#clip0_163_5814)">
<path d="M21.546 6H5.54602C4.68702 6 3.87402 5.628 3.31102 5.001C3.86102 4.387 4.66002 4 5.54602 4H23.546C24.854 3.994 24.853 2.005 23.546 2H5.54602C2.78502 2 0.546021 4.239 0.546021 7V17C0.546021 19.761 2.78502 22 5.54602 22H21.546C23.203 22 24.546 20.657 24.546 19V9C24.546 7.343 23.203 6 21.546 6ZM20.546 15C19.238 14.994 19.238 13.006 20.546 13C21.854 13.006 21.854 14.994 20.546 15Z" fill="black" fill-opacity="0.5"/>
</g>
<defs>
<clipPath id="clip0_163_5814">
<rect width="24" height="24" fill="white" transform="translate(0.546021)"/>
</clipPath>
</defs>
</svg>
